<svg width="24" height="24" viewBox="0 0 24 24" fill="none" xmlns="http://www.w3.org/2000/svg">
<path d="M3.9 3.89844H20.1C20.3387 3.89844 20.5676 3.99326 20.7364 4.16204C20.9052 4.33082 21 4.55974 21 4.79844V19.1984C21 19.4371 20.9052 19.6661 20.7364 19.8348C20.5676 20.0036 20.3387 20.0984 20.1 20.0984H3.9C3.66131 20.0984 3.43239 20.0036 3.2636 19.8348C3.09482 19.6661 3 19.4371 3 19.1984V4.79844C3 4.55974 3.09482 4.33082 3.2636 4.16204C3.43239 3.99326 3.66131 3.89844 3.9 3.89844ZM4.8 5.69844V18.2984H19.2V5.69844H4.8ZM7.5 12.8984H9.3V16.4984H7.5V12.8984ZM11.1 7.49844H12.9V16.4984H11.1V7.49844ZM14.7 10.1984H16.5V16.4984H14.7V10.1984Z" fill="#525866"/>
</svg>
