<svg width="24" height="25" viewBox="0 0 24 25" fill="none" xmlns="http://www.w3.org/2000/svg">
<g clip-path="url(#clip0_173667_8781)">
<path d="M9 21.5H15" stroke="black" stroke-width="2" stroke-linecap="round" stroke-linejoin="round"/>
<path d="M5.24988 10.25C5.24988 8.45979 5.96104 6.7429 7.22691 5.47703C8.49278 4.21116 10.2097 3.5 11.9999 3.5C13.7901 3.5 15.507 4.21116 16.7729 5.47703C18.0387 6.7429 18.7499 8.45979 18.7499 10.25C18.7499 13.6081 19.528 16.3063 20.1468 17.375C20.2125 17.4888 20.2471 17.6179 20.2472 17.7493C20.2474 17.8808 20.2129 18.0099 20.1474 18.1239C20.0819 18.2378 19.9876 18.3325 19.874 18.3985C19.7603 18.4645 19.6313 18.4995 19.4999 18.5H4.49988C4.36861 18.4992 4.23985 18.464 4.12646 18.3978C4.01308 18.3317 3.91904 18.2369 3.85375 18.1231C3.78845 18.0092 3.7542 17.8801 3.7544 17.7489C3.75459 17.6176 3.78925 17.4887 3.85488 17.375C4.4727 16.3063 5.24988 13.6072 5.24988 10.25Z" stroke="black" stroke-width="2" stroke-linecap="round" stroke-linejoin="round"/>
</g>
<defs>
<clipPath id="clip0_173667_8781">
<rect width="24" height="24" fill="white" transform="translate(0 0.5)"/>
</clipPath>
</defs>
</svg>
