<svg width="20" height="20" viewBox="0 0 20 20" fill="none" xmlns="http://www.w3.org/2000/svg">
<path d="M4.44444 3.75C4.06092 3.75 3.75 4.06092 3.75 4.44444V15.5556C3.75 15.9391 4.06092 16.25 4.44444 16.25H11.3889C11.7724 16.25 12.0833 15.9391 12.0833 15.5556V9.09535L13.4872 15.6997C13.5669 16.0749 13.9356 16.3144 14.3108 16.2347L16.3486 15.8015C16.7238 15.7217 16.9632 15.353 16.8835 14.9778L14.8622 5.46807C14.7824 5.09292 14.4136 4.85344 14.0385 4.93318L12.0833 5.34876V5.13889C12.0833 4.75536 11.7724 4.44444 11.3889 4.44444H7.91667C7.91667 4.06092 7.60575 3.75 7.22222 3.75H4.44444ZM7.91667 5.83333H10.6944V11.3889H7.91667V5.83333ZM10.6944 12.7778V14.8611H7.91667V12.7778H10.6944ZM6.52778 13.4722V14.8611H5.13889V13.4722H6.52778ZM14.7013 14.7317L14.4126 13.3734L15.0919 13.229L15.3806 14.5874L14.7013 14.7317Z" fill="#525866"/>
</svg>
