<svg width="16" height="16" viewBox="0 0 16 16" fill="none" xmlns="http://www.w3.org/2000/svg">
<path d="M7.9999 12.2011H9.1999V4.40114L13.0363 6.04514C13.1443 6.09144 13.2363 6.16843 13.301 6.26656C13.3656 6.36468 13.4 6.47963 13.3999 6.59714V12.2011H14.5999V13.4011H1.3999V12.2011H2.5999V4.19114C2.59989 4.07505 2.63355 3.96145 2.69681 3.86411C2.76007 3.76677 2.85021 3.68987 2.9563 3.64274L7.5781 1.58834C7.62383 1.56802 7.6739 1.55947 7.72378 1.56345C7.77365 1.56743 7.82174 1.58383 7.86366 1.61114C7.90558 1.63845 7.94001 1.67581 7.9638 1.71983C7.9876 1.76384 8.00001 1.81311 7.9999 1.86314V12.2011Z" fill="#99A0AE"/>
</svg>
