<svg width="25" height="24" viewBox="0 0 25 24" fill="none" xmlns="http://www.w3.org/2000/svg">
<path d="M20.6001 18.2984H22.4001V20.0984H2.6001V18.2984H4.4001V4.79844C4.4001 4.55974 4.49492 4.33082 4.6637 4.16204C4.83248 3.99326 5.0614 3.89844 5.3001 3.89844H14.3001C14.5388 3.89844 14.7677 3.99326 14.9365 4.16204C15.1053 4.33082 15.2001 4.55974 15.2001 4.79844V18.2984H17.0001V9.29844H19.7001C19.9388 9.29844 20.1677 9.39326 20.3365 9.56204C20.5053 9.73082 20.6001 9.95974 20.6001 10.1984V18.2984ZM8.0001 11.0984V12.8984H11.6001V11.0984H8.0001ZM8.0001 7.49844V9.29844H11.6001V7.49844H8.0001Z" fill="#525866"/>
</svg>
