<svg width="20" height="20" viewBox="0 0 20 20" fill="none" xmlns="http://www.w3.org/2000/svg">
<path d="M10 3.75C10.3835 3.75 10.6944 4.06091 10.6944 4.44444V8.61111C10.6944 8.99465 10.3835 9.30556 10 9.30556H4.44444C4.06092 9.30556 3.75 8.99465 3.75 8.61111V4.44444C3.75 4.06092 4.06092 3.75 4.44444 3.75H10ZM15.5556 3.75C15.9391 3.75 16.25 4.06091 16.25 4.44444V8.61111C16.25 8.99465 15.9391 9.30556 15.5556 9.30556H12.7778C12.3942 9.30556 12.0833 8.99465 12.0833 8.61111V4.44444C12.0833 4.06091 12.3942 3.75 12.7778 3.75H15.5556ZM15.5556 10.6944C15.9391 10.6944 16.25 11.0053 16.25 11.3889V15.5556C16.25 15.9391 15.9391 16.25 15.5556 16.25H10C9.61646 16.25 9.30556 15.9391 9.30556 15.5556V11.3889C9.30556 11.0053 9.61646 10.6944 10 10.6944H15.5556ZM3.75 11.3889C3.75 11.0053 4.06092 10.6944 4.44444 10.6944H7.22222C7.60576 10.6944 7.91667 11.0053 7.91667 11.3889V15.5556C7.91667 15.9391 7.60576 16.25 7.22222 16.25H4.44444C4.06092 16.25 3.75 15.9391 3.75 15.5556V11.3889Z" fill="#0E121B"/>
</svg>
