<svg width="16" height="16" viewBox="0 0 16 16" fill="none" xmlns="http://www.w3.org/2000/svg">
<path d="M6.79998 4.39961V5.59961H3.79998V12.1996H10.4V9.19961H11.6V12.7996C11.6 12.9587 11.5368 13.1114 11.4242 13.2239C11.3117 13.3364 11.1591 13.3996 11 13.3996H3.19998C3.04085 13.3996 2.88823 13.3364 2.77571 13.2239C2.66319 13.1114 2.59998 12.9587 2.59998 12.7996V4.99961C2.59998 4.84048 2.66319 4.68787 2.77571 4.57535C2.88823 4.46282 3.04085 4.39961 3.19998 4.39961H6.79998ZM13.4 2.59961V7.39961H12.2V4.64741L7.52418 9.32381L6.67578 8.47541L11.351 3.79961H8.59998V2.59961H13.4Z" fill="#0E121B"/>
</svg>
