<svg width="16" height="16" viewBox="0 0 16 16" fill="none" xmlns="http://www.w3.org/2000/svg">
<path d="M4.99998 4.4V2.6C4.99998 2.44087 5.06319 2.28826 5.17571 2.17574C5.28823 2.06321 5.44085 2 5.59998 2H12.8C12.9591 2 13.1117 2.06321 13.2242 2.17574C13.3368 2.28826 13.4 2.44087 13.4 2.6V11C13.4 11.1591 13.3368 11.3117 13.2242 11.4243C13.1117 11.5368 12.9591 11.6 12.8 11.6H11V13.4C11 13.7312 10.73 14 10.3958 14H3.20418C3.12505 14.0005 3.04661 13.9853 2.97337 13.9554C2.90012 13.9254 2.83352 13.8813 2.77737 13.8256C2.72123 13.7698 2.67665 13.7035 2.64621 13.6305C2.61576 13.5575 2.60005 13.4791 2.59998 13.4L2.60178 5C2.60178 4.6688 2.87178 4.4 3.20598 4.4H4.99998ZM3.80178 5.6L3.79998 12.8H9.79998V5.6H3.80178ZM6.19998 4.4H11V10.4H12.2V3.2H6.19998V4.4Z" fill="#0E121B"/>
</svg>
