<svg width="20" height="20" viewBox="0 0 20 20" fill="none" xmlns="http://www.w3.org/2000/svg">
<path d="M10 18.25C11.4919 18.25 12.9226 17.6574 13.9775 16.6025C15.0324 15.5476 15.625 14.1168 15.625 12.625C15.625 11.9755 15.4525 11.3522 15.25 10.7725C13.9998 12.0077 13.0503 12.625 12.4 12.625C15.3963 7.375 13.75 5.125 9.25001 2.125C9.62501 5.875 7.15301 7.5805 6.14651 8.52775C5.3255 9.30001 4.75544 10.3011 4.51022 11.4012C4.26501 12.5014 4.35595 13.6498 4.77127 14.6976C5.18659 15.7455 5.90712 16.6444 6.83944 17.2778C7.77176 17.9112 8.87287 18.2499 10 18.25V18.25ZM10.5325 4.92625C12.9633 6.98875 12.9753 8.5915 11.0973 11.8817C10.5265 12.8815 11.2488 14.125 12.4 14.125C12.916 14.125 13.438 13.975 13.9893 13.6788C13.8259 14.296 13.5214 14.8669 13.0999 15.3464C12.6783 15.826 12.1512 16.2012 11.5601 16.4424C10.9689 16.6836 10.3298 16.7843 9.69308 16.7366C9.05637 16.6888 8.43944 16.4939 7.89086 16.1672C7.34229 15.8405 6.87705 15.3909 6.53177 14.8538C6.1865 14.3167 5.97061 13.7068 5.90112 13.0721C5.83163 12.4374 5.91043 11.7952 6.13131 11.1961C6.35219 10.597 6.70913 10.0574 7.17401 9.61975C7.26851 9.53125 7.74776 9.106 7.76876 9.08725C8.08676 8.80225 8.34851 8.5495 8.60726 8.27275C9.52976 7.28425 10.1928 6.18775 10.5318 4.92625H10.5325Z" fill="#0E121B"/>
</svg>
