<svg width="16" height="16" viewBox="0 0 16 16" fill="none" xmlns="http://www.w3.org/2000/svg">
<path d="M8 13C5.23857 13 3 10.7614 3 8C3 5.23857 5.23857 3 8 3C10.7614 3 13 5.23857 13 8C13 10.7614 10.7614 13 8 13ZM8 12C10.2092 12 12 10.2092 12 8C12 5.79086 10.2092 4 8 4C5.79086 4 4 5.79086 4 8C4 10.2092 5.79086 12 8 12ZM8.5 7.25V9.5H9V10.5H7V9.5H7.5V8.25H7V7.25H8.5ZM8.75 6C8.75 6.41421 8.4142 6.75 8 6.75C7.5858 6.75 7.25 6.41421 7.25 6C7.25 5.58579 7.5858 5.25 8 5.25C8.4142 5.25 8.75 5.58579 8.75 6Z" fill="#0E121B"/>
</svg>
