<svg width="24" height="24" viewBox="0 0 24 24" fill="none" xmlns="http://www.w3.org/2000/svg">
<path d="M20.0999 3.89844V5.69844C20.0999 14.3627 15.2642 18.2984 9.2999 18.2984H5.9186C5.7719 19.1192 5.6999 20.0147 5.6999 20.9984H3.8999C3.8999 19.7717 4.0043 18.6584 4.2113 17.6396C4.0043 16.475 3.8999 14.8946 3.8999 12.8984C3.8999 7.92774 7.9292 3.89844 12.8999 3.89844C14.6999 3.89844 16.4999 4.79844 20.0999 3.89844ZM12.8999 5.69844C8.9237 5.69844 5.6999 8.92224 5.6999 12.8984C5.6999 13.2242 5.7026 13.5383 5.7089 13.8398C6.8375 12.0596 8.4908 10.6529 10.6535 9.41724L11.5463 10.9796C8.9768 12.4484 7.2722 14.117 6.3983 16.4984H9.2999C14.7134 16.4984 18.1838 12.9227 18.2972 6.04764C17.0624 6.16734 15.9149 6.09084 14.4992 5.87844C13.4642 5.72274 13.2608 5.69844 12.8999 5.69844Z" fill="#0E121B"/>
</svg>
