<svg width="20" height="20" viewBox="0 0 20 20" fill="none" xmlns="http://www.w3.org/2000/svg">
<path d="M8.47975 14.4992H9.25V10.7492H10.75V14.4992H11.5203C11.6193 13.5977 12.079 12.8537 12.8253 12.0415C12.91 11.95 13.4493 11.3912 13.513 11.3117C14.0427 10.65 14.3747 9.85204 14.4708 9.00983C14.5669 8.16762 14.4232 7.3154 14.0562 6.5513C13.6892 5.78721 13.1138 5.14231 12.3963 4.69088C11.6789 4.23945 10.8485 3.99985 10.0008 3.99967C9.15314 3.99949 8.32266 4.23874 7.605 4.68986C6.88734 5.14098 6.31169 5.78563 5.94435 6.54957C5.577 7.31351 5.43291 8.16567 5.52864 9.00792C5.62438 9.85017 5.95607 10.6482 6.4855 11.3102C6.55 11.3905 7.09075 11.95 7.174 12.0407C7.921 12.8537 8.38075 13.5977 8.47975 14.4992ZM8.5 15.9992V16.7492H11.5V15.9992H8.5ZM5.3155 12.2492C4.60914 11.3667 4.16646 10.3026 4.03845 9.17947C3.91044 8.05635 4.1023 6.91991 4.59194 5.90106C5.08158 4.88221 5.84908 4.0224 6.80602 3.42069C7.76296 2.81897 8.87041 2.49982 10.0008 2.5C11.1312 2.50018 12.2386 2.81969 13.1953 3.42171C14.1521 4.02373 14.9193 4.88378 15.4086 5.90279C15.8979 6.92179 16.0894 8.0583 15.961 9.18138C15.8327 10.3045 15.3896 11.3684 14.683 12.2507C14.218 12.8297 13 13.7492 13 14.8742V16.7492C13 17.1471 12.842 17.5286 12.5607 17.8099C12.2794 18.0912 11.8978 18.2492 11.5 18.2492H8.5C8.10218 18.2492 7.72065 18.0912 7.43934 17.8099C7.15804 17.5286 7 17.1471 7 16.7492V14.8742C7 13.7492 5.78125 12.8297 5.3155 12.2492Z" fill="#0E121B"/>
</svg>
