<svg width="20" height="20" viewBox="0 0 20 20" fill="none" xmlns="http://www.w3.org/2000/svg">
<path d="M8.4799 14.4992H11.5204C11.6194 13.5977 12.0792 12.8537 12.8254 12.0415C12.9102 11.95 13.4494 11.3912 13.5132 11.3117C14.0429 10.65 14.3749 9.85203 14.471 9.00983C14.5671 8.16762 14.4234 7.3154 14.0563 6.5513C13.6893 5.78721 13.114 5.14231 12.3965 4.69088C11.679 4.23945 10.8486 3.99985 10.001 3.99967C9.15329 3.99949 8.32281 4.23874 7.60515 4.68986C6.88749 5.14098 6.31184 5.78563 5.9445 6.54957C5.57716 7.31351 5.43306 8.16567 5.5288 9.00792C5.62454 9.85017 5.95622 10.6482 6.48565 11.3102C6.55015 11.3905 7.0909 11.95 7.17415 12.0407C7.92115 12.8537 8.3809 13.5977 8.4799 14.4992V14.4992ZM11.5002 15.9992H8.50015V16.7492H11.5002V15.9992ZM5.31565 12.2492C4.6093 11.3667 4.16661 10.3026 4.0386 9.17947C3.91059 8.05635 4.10245 6.9199 4.59209 5.90106C5.08173 4.88221 5.84923 4.0224 6.80617 3.42069C7.76311 2.81897 8.87057 2.49982 10.001 2.5C11.1314 2.50018 12.2387 2.81969 13.1955 3.42171C14.1522 4.02373 14.9194 4.88378 15.4087 5.90279C15.8981 6.92179 16.0896 8.0583 15.9612 9.18138C15.8328 10.3045 15.3898 11.3684 14.6832 12.2507C14.2182 12.8297 13.0002 13.7492 13.0002 14.8742V16.7492C13.0002 17.1471 12.8421 17.5286 12.5608 17.8099C12.2795 18.0912 11.898 18.2492 11.5002 18.2492H8.50015C8.10233 18.2492 7.7208 18.0912 7.43949 17.8099C7.15819 17.5286 7.00015 17.1471 7.00015 16.7492V14.8742C7.00015 13.7492 5.7814 12.8297 5.31565 12.2492ZM10.7502 8.50225H12.6252L9.25015 13.0022V10.0022H7.37515L10.7502 5.49925V8.503V8.50225Z" fill="#525866"/>
</svg>
