<svg width="20" height="20" viewBox="0 0 20 20" fill="none" xmlns="http://www.w3.org/2000/svg">
<path d="M10.625 5H15.625V6.25H10.625V5ZM10.625 9.375H15.625V10.625H10.625V9.375ZM10.625 13.75H15.625V15H10.625V13.75ZM6.5625 14.375C5.87214 14.375 5.3125 13.8154 5.3125 13.125C5.3125 12.4346 5.87214 11.875 6.5625 11.875C7.25286 11.875 7.8125 12.4346 7.8125 13.125C7.8125 13.8154 7.25286 14.375 6.5625 14.375ZM6.5625 15.625C7.94321 15.625 9.0625 14.5057 9.0625 13.125C9.0625 11.7443 7.94321 10.625 6.5625 10.625C5.18179 10.625 4.0625 11.7443 4.0625 13.125C4.0625 14.5057 5.18179 15.625 6.5625 15.625ZM5.625 6.25V8.125H7.5V6.25H5.625ZM4.375 5H8.75V9.375H4.375V5Z" fill="#0E121B"/>
</svg>
