<svg width="32" height="32" viewBox="0 0 32 32" fill="none" xmlns="http://www.w3.org/2000/svg">
<path d="M4 23.1984H12.4V25.5984H4V23.1984ZM4 14.7984H14.8V17.1984H4V14.7984ZM4 6.39844H28V8.79844H4V6.39844ZM26.4088 17.2284L27.796 16.7592L28.996 18.8376L27.8968 19.8036C28.0352 20.4596 28.0352 21.1373 27.8968 21.7932L28.996 22.7592L27.796 24.8376L26.4088 24.3684C25.9168 24.8124 25.3312 25.1544 24.6868 25.3644L24.4 26.7984H22L21.712 25.3632C21.0751 25.1551 20.4889 24.8158 19.9912 24.3672L18.604 24.8376L17.404 22.7592L18.5032 21.7932C18.3648 21.1373 18.3648 20.4596 18.5032 19.8036L17.404 18.8376L18.604 16.7592L19.9912 17.2284C20.4832 16.7844 21.0688 16.4424 21.7132 16.2324L22 14.7984H24.4L24.688 16.2336C25.3312 16.4424 25.9168 16.7856 26.4088 17.2296V17.2284ZM23.2 21.9984C23.5183 21.9984 23.8235 21.872 24.0485 21.647C24.2736 21.4219 24.4 21.1167 24.4 20.7984C24.4 20.4802 24.2736 20.175 24.0485 19.9499C23.8235 19.7249 23.5183 19.5984 23.2 19.5984C22.8817 19.5984 22.5765 19.7249 22.3515 19.9499C22.1264 20.175 22 20.4802 22 20.7984C22 21.1167 22.1264 21.4219 22.3515 21.647C22.5765 21.872 22.8817 21.9984 23.2 21.9984Z" fill="#525866"/>
</svg>
