<svg width="24" height="24" viewBox="0 0 24 24" fill="none" xmlns="http://www.w3.org/2000/svg">
<path d="M14.625 6.75C13.1753 6.75 12 7.92525 12 9.375C12 10.8247 13.1753 12 14.625 12C16.0747 12 17.25 10.8247 17.25 9.375C17.25 7.92525 16.0747 6.75 14.625 6.75ZM10.5 9.375C10.5 7.09682 12.3468 5.25 14.625 5.25C16.9032 5.25 18.75 7.09682 18.75 9.375C18.75 10.2431 18.4818 11.0486 18.0238 11.7131L20.0303 13.7197L18.9697 14.7803L16.9631 12.7738C16.2986 13.2318 15.4931 13.5 14.625 13.5C12.3468 13.5 10.5 11.6532 10.5 9.375ZM5.25 6H9V7.5H5.25V6ZM5.25 11.25H9V12.75H5.25V11.25ZM18.75 16.5V18H5.25V16.5H18.75Z" fill="#0E121B"/>
</svg>
