<svg width="20" height="20" viewBox="0 0 20 20" fill="none" xmlns="http://www.w3.org/2000/svg">
<path d="M7.8025 6.25L5.5 9.7045V16H14.5V6.25H7.8025ZM7 4.75H15.25C15.4489 4.75 15.6397 4.82902 15.7803 4.96967C15.921 5.11032 16 5.30109 16 5.5V16.75C16 16.9489 15.921 17.1397 15.7803 17.2803C15.6397 17.421 15.4489 17.5 15.25 17.5H4.75C4.55109 17.5 4.36032 17.421 4.21967 17.2803C4.07902 17.1397 4 16.9489 4 16.75V9.25L7 4.75ZM10.75 1.75H14.5C14.6989 1.75 14.8897 1.82902 15.0303 1.96967C15.171 2.11032 15.25 2.30109 15.25 2.5V4H10V2.5C10 2.30109 10.079 2.11032 10.2197 1.96967C10.3603 1.82902 10.5511 1.75 10.75 1.75ZM7 10H8.5V14.5H7V10Z" fill="#0E121B"/>
</svg>
