<svg width="24" height="25" viewBox="0 0 24 25" fill="none" xmlns="http://www.w3.org/2000/svg">
<g clip-path="url(#clip0_173667_8776)">
<path d="M12 18.5C12.6213 18.5 13.125 17.9963 13.125 17.375C13.125 16.7537 12.6213 16.25 12 16.25C11.3787 16.25 10.875 16.7537 10.875 17.375C10.875 17.9963 11.3787 18.5 12 18.5Z" fill="black"/>
<path d="M12 14V13.25C13.6566 13.25 15 12.0744 15 10.625C15 9.17562 13.6566 8 12 8C10.3434 8 9 9.17562 9 10.625V11" stroke="black" stroke-width="2" stroke-linecap="round" stroke-linejoin="round"/>
<path d="M12 21.5C16.9706 21.5 21 17.4706 21 12.5C21 7.52944 16.9706 3.5 12 3.5C7.02944 3.5 3 7.52944 3 12.5C3 17.4706 7.02944 21.5 12 21.5Z" stroke="black" stroke-width="2" stroke-linecap="round" stroke-linejoin="round"/>
</g>
<defs>
<clipPath id="clip0_173667_8776">
<rect width="24" height="24" fill="white" transform="translate(0 0.5)"/>
</clipPath>
</defs>
</svg>
