<svg width="20" height="20" viewBox="0 0 20 20" fill="none" xmlns="http://www.w3.org/2000/svg">
<path d="M13.0002 14.5V13H13.7502C14.216 12.9997 14.6754 12.891 15.0919 12.6824C15.5084 12.4738 15.8706 12.1711 16.1498 11.7982C16.4291 11.4254 16.6176 10.9926 16.7006 10.5342C16.7835 10.0758 16.7586 9.60441 16.6277 9.15733C16.4969 8.71026 16.2637 8.29979 15.9467 7.95846C15.6297 7.61713 15.2376 7.35431 14.8014 7.19083C14.3652 7.02734 13.8969 6.96768 13.4337 7.01657C12.9704 7.06546 12.5249 7.22156 12.1324 7.4725C11.9464 6.68022 11.5491 5.9532 10.9826 5.36885C10.4162 4.7845 9.70191 4.3647 8.9158 4.15414C8.12969 3.94358 7.30119 3.95015 6.51851 4.17314C5.73583 4.39613 5.02828 4.82719 4.47117 5.42044C3.91407 6.01369 3.52828 6.74692 3.35487 7.54205C3.18146 8.33718 3.22692 9.16446 3.48642 9.9358C3.74592 10.7071 4.20973 11.3937 4.82849 11.9223C5.44725 12.4509 6.19778 12.8019 7.00018 12.9378V14.4543C5.48601 14.2631 4.10157 13.5022 3.12858 12.3264C2.1556 11.1506 1.6672 9.6482 1.76276 8.12501C1.85832 6.60182 2.53068 5.17227 3.64299 4.12728C4.7553 3.0823 6.22399 2.5004 7.75018 2.5C8.81645 2.49954 9.86358 2.78331 10.7837 3.32208C11.7039 3.86085 12.4638 4.63515 12.9852 5.56525C13.5993 5.45951 14.2287 5.48249 14.8335 5.63272C15.4383 5.78295 16.0054 6.05717 16.4986 6.43799C16.9919 6.81881 17.4007 7.29794 17.6992 7.84502C17.9976 8.3921 18.1791 8.9952 18.2323 9.61611C18.2855 10.237 18.2091 10.8622 18.008 11.4521C17.8069 12.0419 17.4855 12.5836 17.0641 13.0427C16.6428 13.5018 16.1306 13.8684 15.5602 14.1193C14.9897 14.3702 14.3734 14.4998 13.7502 14.5H13.0002ZM8.67418 15.049L10.0002 13.723L11.3262 15.049C11.5884 15.3112 11.7669 15.6453 11.8392 16.009C11.9115 16.3727 11.8743 16.7497 11.7324 17.0923C11.5905 17.4349 11.3502 17.7277 11.0418 17.9337C10.7335 18.1397 10.371 18.2497 10.0002 18.2497C9.62936 18.2497 9.26687 18.1397 8.95854 17.9337C8.65021 17.7277 8.40988 17.4349 8.26795 17.0923C8.12602 16.7497 8.08886 16.3727 8.16117 16.009C8.23348 15.6453 8.41201 15.3112 8.67418 15.049V15.049Z" fill="#525866"/>
</svg>
