<svg width="16" height="16" viewBox="0 0 16 16" fill="none" xmlns="http://www.w3.org/2000/svg">
<path d="M5.0001 12.2016V8.60156H11.0001V12.2016H12.2001V5.49836L10.5033 3.80156H3.8001V12.2016H5.0001ZM3.2001 2.60156H11.0001L13.4001 5.00156V12.8016C13.4001 12.9607 13.3369 13.1133 13.2244 13.2258C13.1118 13.3383 12.9592 13.4016 12.8001 13.4016H3.2001C3.04097 13.4016 2.88836 13.3383 2.77583 13.2258C2.66331 13.1133 2.6001 12.9607 2.6001 12.8016V3.20156C2.6001 3.04243 2.66331 2.88982 2.77583 2.7773C2.88836 2.66478 3.04097 2.60156 3.2001 2.60156V2.60156ZM6.2001 9.80156V12.2016H9.8001V9.80156H6.2001Z" fill="#99A0AE"/>
</svg>
