<svg width="16" height="16" viewBox="0 0 16 16" fill="none" xmlns="http://www.w3.org/2000/svg">
<path d="M2 8.00155C2 7.48255 2.066 6.97975 2.1896 6.49915C2.52108 6.51657 2.85092 6.442 3.14266 6.28367C3.43441 6.12534 3.67669 5.88942 3.84272 5.602C4.00876 5.31457 4.09208 4.98683 4.08348 4.655C4.07489 4.32318 3.9747 4.00019 3.794 3.72175C4.51937 3.00809 5.41448 2.49085 6.395 2.21875C6.54559 2.51483 6.77518 2.76347 7.05835 2.93714C7.34152 3.1108 7.66722 3.20272 7.9994 3.20272C8.33158 3.20272 8.65728 3.1108 8.94045 2.93714C9.22362 2.76347 9.45321 2.51483 9.6038 2.21875C10.5843 2.49085 11.4794 3.00809 12.2048 3.72175C12.0239 4.00024 11.9236 4.32335 11.9149 4.65533C11.9062 4.98731 11.9896 5.31521 12.1557 5.60276C12.3218 5.89031 12.5643 6.12629 12.8562 6.2846C13.1481 6.44291 13.4782 6.51737 13.8098 6.49975C13.9334 6.97975 13.9994 7.48255 13.9994 8.00155C13.9994 8.52055 13.9334 9.02335 13.8098 9.50395C13.4783 9.48641 13.1483 9.5609 12.8565 9.71918C12.5647 9.87746 12.3223 10.1134 12.1562 10.4008C11.9901 10.6883 11.9067 11.0161 11.9153 11.3479C11.9239 11.6798 12.0241 12.0029 12.2048 12.2813C11.4794 12.995 10.5843 13.5123 9.6038 13.7843C9.45321 13.4883 9.22362 13.2396 8.94045 13.066C8.65728 12.8923 8.33158 12.8004 7.9994 12.8004C7.66722 12.8004 7.34152 12.8923 7.05835 13.066C6.77518 13.2396 6.54559 13.4883 6.395 13.7843C5.41448 13.5123 4.51937 12.995 3.794 12.2813C3.9749 12.0029 4.07524 11.6797 4.0839 11.3478C4.09256 11.0158 4.00922 10.6879 3.84309 10.4003C3.67695 10.1128 3.43451 9.87681 3.14258 9.7185C2.85066 9.56019 2.52062 9.48573 2.189 9.50335C2.066 9.02395 2 8.52115 2 8.00155ZM4.8824 9.80155C5.2604 10.4561 5.3684 11.2091 5.2208 11.9159C5.4656 12.0899 5.726 12.2405 5.999 12.3659C6.549 11.8733 7.26159 11.601 8 11.6015C8.756 11.6015 9.4628 11.8841 10.001 12.3659C10.274 12.2405 10.5344 12.0899 10.7792 11.9159C10.6277 11.1935 10.7482 10.4406 11.1176 9.80155C11.4864 9.16217 12.0782 8.68144 12.7796 8.45155C12.8073 8.15219 12.8073 7.85091 12.7796 7.55155C12.078 7.32179 11.4859 6.84104 11.117 6.20155C10.7476 5.56251 10.6271 4.80957 10.7786 4.08715C10.5339 3.9131 10.2733 3.76244 10.0004 3.63715C9.45055 4.12971 8.7382 4.40192 8 4.40155C7.26159 4.40206 6.549 4.12985 5.999 3.63715C5.72608 3.76244 5.46553 3.91311 5.2208 4.08715C5.37234 4.80957 5.25183 5.56251 4.8824 6.20155C4.51362 6.84093 3.92179 7.32166 3.2204 7.55155C3.19265 7.85091 3.19265 8.15219 3.2204 8.45155C3.92201 8.68131 4.51408 9.16206 4.883 9.80155H4.8824ZM8 9.80155C7.52261 9.80155 7.06477 9.61191 6.72721 9.27434C6.38964 8.93678 6.2 8.47894 6.2 8.00155C6.2 7.52416 6.38964 7.06632 6.72721 6.72876C7.06477 6.39119 7.52261 6.20155 8 6.20155C8.47739 6.20155 8.93523 6.39119 9.27279 6.72876C9.61036 7.06632 9.8 7.52416 9.8 8.00155C9.8 8.47894 9.61036 8.93678 9.27279 9.27434C8.93523 9.61191 8.47739 9.80155 8 9.80155ZM8 8.60155C8.15913 8.60155 8.31174 8.53834 8.42426 8.42581C8.53679 8.31329 8.6 8.16068 8.6 8.00155C8.6 7.84242 8.53679 7.68981 8.42426 7.57729C8.31174 7.46476 8.15913 7.40155 8 7.40155C7.84087 7.40155 7.68826 7.46476 7.57574 7.57729C7.46321 7.68981 7.4 7.84242 7.4 8.00155C7.4 8.16068 7.46321 8.31329 7.57574 8.42581C7.68826 8.53834 7.84087 8.60155 8 8.60155V8.60155Z" fill="#99A0AE"/>
</svg>
