<svg width="20" height="20" viewBox="0 0 20 20" fill="none" xmlns="http://www.w3.org/2000/svg">
<path d="M7.5145 4L9.46975 2.04475C9.6104 1.90415 9.80113 1.82516 10 1.82516C10.1989 1.82516 10.3896 1.90415 10.5303 2.04475L12.4855 4H15.25C15.4489 4 15.6397 4.07902 15.7803 4.21967C15.921 4.36033 16 4.55109 16 4.75V7.5145L17.9553 9.46975C18.0959 9.6104 18.1748 9.80113 18.1748 10C18.1748 10.1989 18.0959 10.3896 17.9553 10.5303L16 12.4855V15.25C16 15.4489 15.921 15.6397 15.7803 15.7803C15.6397 15.921 15.4489 16 15.25 16H12.4855L10.5303 17.9553C10.3896 18.0959 10.1989 18.1748 10 18.1748C9.80113 18.1748 9.6104 18.0959 9.46975 17.9553L7.5145 16H4.75C4.55109 16 4.36033 15.921 4.21967 15.7803C4.07902 15.6397 4 15.4489 4 15.25V12.4855L2.04475 10.5303C1.90415 10.3896 1.82516 10.1989 1.82516 10C1.82516 9.80113 1.90415 9.6104 2.04475 9.46975L4 7.5145V4.75C4 4.55109 4.07902 4.36033 4.21967 4.21967C4.36033 4.07902 4.55109 4 4.75 4H7.5145ZM10 12.25C10.5967 12.25 11.169 12.013 11.591 11.591C12.013 11.169 12.25 10.5967 12.25 10C12.25 9.40327 12.013 8.83097 11.591 8.40901C11.169 7.98706 10.5967 7.75 10 7.75C9.40327 7.75 8.83097 7.98706 8.40901 8.40901C7.98706 8.83097 7.75 9.40327 7.75 10C7.75 10.5967 7.98706 11.169 8.40901 11.591C8.83097 12.013 9.40327 12.25 10 12.25Z" fill="#525866"/>
</svg>
