<svg width="24" height="25" viewBox="0 0 24 25" fill="none" xmlns="http://www.w3.org/2000/svg">
<path d="M3.19168 14.354C2.93285 13.1315 2.93285 11.8684 3.19168 10.646C4.19068 10.763 5.06368 10.4327 5.34808 9.74508C5.63338 9.05658 5.25088 8.20608 4.46068 7.58238C5.14202 6.53507 6.03507 5.64202 7.08238 4.96068C7.70518 5.74998 8.55658 6.13338 9.24508 5.84808C9.93358 5.56278 10.2639 4.69068 10.146 3.69168C11.3684 3.43285 12.6315 3.43285 13.854 3.69168C13.737 4.69068 14.0673 5.56368 14.7549 5.84808C15.4434 6.13338 16.2939 5.75088 16.9176 4.96068C17.9649 5.64202 18.8579 6.53507 19.5393 7.58238C18.75 8.20518 18.3666 9.05658 18.6519 9.74508C18.9372 10.4336 19.8093 10.7639 20.8083 10.646C21.0671 11.8684 21.0671 13.1315 20.8083 14.354C19.8093 14.237 18.9363 14.5673 18.6519 15.2549C18.3666 15.9434 18.7491 16.7939 19.5393 17.4176C18.8579 18.4649 17.9649 19.3579 16.9176 20.0393C16.2948 19.25 15.4434 18.8666 14.7549 19.1519C14.0664 19.4372 13.7361 20.3093 13.854 21.3083C12.6315 21.5671 11.3684 21.5671 10.146 21.3083C10.263 20.3093 9.93268 19.4363 9.24508 19.1519C8.55658 18.8666 7.70608 19.2491 7.08238 20.0393C6.03507 19.3579 5.14202 18.4649 4.46068 17.4176C5.24998 16.7948 5.63338 15.9434 5.34808 15.2549C5.06278 14.5664 4.19068 14.2361 3.19168 14.354ZM4.79998 12.689C5.78998 12.9635 6.60628 13.5908 7.01128 14.5664C7.41538 15.5429 7.28128 16.5644 6.77548 17.4572C6.86188 17.549 6.95098 17.6381 7.04278 17.7245C7.93648 17.2187 8.95708 17.0855 9.93358 17.4887C10.9092 17.8937 11.5365 18.71 11.811 19.7C11.937 19.7036 12.063 19.7036 12.189 19.7C12.4635 18.71 13.0908 17.8937 14.0664 17.4887C15.0429 17.0846 16.0644 17.2187 16.9572 17.7245C17.049 17.6381 17.1381 17.549 17.2245 17.4572C16.7187 16.5635 16.5855 15.5429 16.9887 14.5664C17.3937 13.5908 18.21 12.9635 19.2 12.689C19.2036 12.563 19.2036 12.437 19.2 12.311C18.21 12.0365 17.3937 11.4092 16.9887 10.4336C16.5846 9.45708 16.7187 8.43558 17.2245 7.54278C17.1378 7.45134 17.0486 7.36221 16.9572 7.27548C16.0635 7.78128 15.0429 7.91448 14.0664 7.51128C13.0908 7.10628 12.4635 6.28998 12.189 5.29998C12.063 5.29665 11.937 5.29665 11.811 5.29998C11.5365 6.28998 10.9092 7.10628 9.93358 7.51128C8.95708 7.91538 7.93558 7.78128 7.04278 7.27548C6.95098 7.36188 6.86188 7.45098 6.77548 7.54278C7.28128 8.43648 7.41448 9.45708 7.01128 10.4336C6.60628 11.4092 5.78998 12.0365 4.79998 12.311C4.79638 12.437 4.79638 12.563 4.79998 12.689ZM12 15.2C11.2839 15.2 10.5971 14.9155 10.0908 14.4092C9.58444 13.9028 9.29998 13.2161 9.29998 12.5C9.29998 11.7839 9.58444 11.0971 10.0908 10.5908C10.5971 10.0844 11.2839 9.79998 12 9.79998C12.7161 9.79998 13.4028 10.0844 13.9092 10.5908C14.4155 11.0971 14.7 11.7839 14.7 12.5C14.7 13.2161 14.4155 13.9028 13.9092 14.4092C13.4028 14.9155 12.7161 15.2 12 15.2ZM12 13.4C12.2387 13.4 12.4676 13.3052 12.6364 13.1364C12.8052 12.9676 12.9 12.7387 12.9 12.5C12.9 12.2613 12.8052 12.0324 12.6364 11.8636C12.4676 11.6948 12.2387 11.6 12 11.6C11.7613 11.6 11.5324 11.6948 11.3636 11.8636C11.1948 12.0324 11.1 12.2613 11.1 12.5C11.1 12.7387 11.1948 12.9676 11.3636 13.1364C11.5324 13.3052 11.7613 13.4 12 13.4Z" fill="#0E121B"/>
</svg>
