<svg width="20" height="20" viewBox="0 0 20 20" fill="none" xmlns="http://www.w3.org/2000/svg">
<path d="M9.99988 3.95728L11.698 2.8252L12.4684 3.98082L10.6943 5.16355V8.79732L13.8412 6.98044L13.9784 4.85265L15.3644 4.94204L15.2331 6.9787L17.0625 7.88329L16.447 9.12829L14.5356 8.18325L11.389 9.99996L14.5359 11.8169L16.4472 10.8718L17.0628 12.1168L15.2333 13.0214L15.3647 15.0581L13.9787 15.1475L13.8415 13.0197L10.6943 11.2027V14.8369L12.4684 16.0196L11.698 17.1752L9.99988 16.0432L8.30172 17.1752L7.53131 16.0196L9.30543 14.8369V11.2029L6.15825 13.02L6.02103 15.1477L4.63501 15.0583L4.76637 13.0216L2.93689 12.1171L3.55248 10.872L5.46381 11.8171L8.6112 9.99996L5.46407 8.18301L3.55275 9.12808L2.93715 7.88304L4.76663 6.97846L4.63528 4.9418L6.02129 4.85241L6.15851 6.98019L9.30543 8.79704V5.16355L7.53131 3.98082L8.30172 2.8252L9.99988 3.95728Z" fill="#0E121B"/>
</svg>
