<svg width="20" height="20" viewBox="0 0 20 20" fill="none" xmlns="http://www.w3.org/2000/svg">
<path d="M10 3.9563L11.6981 2.82422L12.4685 3.97984L10.6944 5.16257V8.79634L13.8413 6.97946L13.9785 4.85168L15.3645 4.94107L15.2332 6.97773L17.0626 7.88231L16.4471 9.12732L14.5358 8.18227L11.3891 9.99898L14.536 11.8159L16.4474 10.8709L17.0629 12.1159L15.2335 13.0204L15.3648 15.0571L13.9788 15.1465L13.8416 13.0187L10.6944 11.2017V14.8359L12.4685 16.0186L11.6981 17.1743L10 16.0422L8.30184 17.1743L7.53143 16.0186L9.30555 14.8359V11.202L6.15837 13.019L6.02115 15.1468L4.63514 15.0573L4.76649 13.0206L2.93701 12.1161L3.5526 10.8711L5.46393 11.8161L8.61132 9.99898L5.46419 8.18203L3.55287 9.12711L2.93728 7.88207L4.76675 6.97748L4.6354 4.94082L6.02141 4.85143L6.15864 6.97921L9.30555 8.79607V5.16257L7.53143 3.97984L8.30184 2.82422L10 3.9563Z" fill="#525866"/>
</svg>
