<svg width="16" height="16" viewBox="0 0 16 16" fill="none" xmlns="http://www.w3.org/2000/svg">
<path d="M4.60462 9.19844C4.34991 8.478 4.33105 7.6952 4.55076 6.96333C4.77047 6.23146 5.21736 5.58848 5.82676 5.12746C6.43616 4.66643 7.17644 4.41127 7.94048 4.39891C8.70452 4.38654 9.45268 4.61761 10.0767 5.05868C10.7007 5.49974 11.1681 6.12792 11.4114 6.8523C11.6547 7.57668 11.6612 8.35968 11.4299 9.08798C11.1986 9.81628 10.7416 10.4521 10.125 10.9034C9.50839 11.3548 8.76416 11.5982 8.00002 11.5984V9.19844H4.60462ZM4.40002 12.7984H9.80002V13.9984H4.40002V12.7984ZM1.40002 7.39844H3.20002V8.59844H1.40002V7.39844ZM2.00002 10.3984H6.80002V11.5984H2.00002V10.3984ZM7.40002 1.39844H8.60002V3.19844H7.40002V1.39844ZM2.90902 3.75584L3.75742 2.90744L5.03002 4.18004L4.18162 5.02844L2.90902 3.75644V3.75584ZM10.97 11.8168L11.8184 10.9684L13.091 12.241L12.2426 13.0894L10.97 11.8168ZM12.2426 2.90684L13.091 3.75584L11.8184 5.02844L10.97 4.18004L12.2426 2.90744V2.90684ZM14.6 7.39844V8.59844H12.8V7.39844H14.6Z" fill="#99A0AE"/>
</svg>
