<svg width="20" height="20" viewBox="0 0 20 20" fill="none" xmlns="http://www.w3.org/2000/svg">
<path d="M7 4.75C7 3.95435 7.31607 3.19129 7.87868 2.62868C8.44129 2.06607 9.20435 1.75 10 1.75C10.7956 1.75 11.5587 2.06607 12.1213 2.62868C12.6839 3.19129 13 3.95435 13 4.75V8.69125C13.9172 9.32993 14.6067 10.2447 14.9681 11.3024C15.3294 12.36 15.3438 13.5054 15.0091 14.5718C14.6744 15.6382 14.0081 16.57 13.1071 17.2315C12.2062 17.893 11.1177 18.2497 10 18.2497C8.88231 18.2497 7.79378 17.893 6.89285 17.2315C5.99193 16.57 5.32562 15.6382 4.99092 14.5718C4.65622 13.5054 4.67059 12.36 5.03194 11.3024C5.39329 10.2447 6.08276 9.32993 7 8.69125V4.75ZM7.858 9.92125C7.20263 10.3773 6.70993 11.0307 6.45164 11.7862C6.19335 12.5417 6.18294 13.3599 6.42193 14.1218C6.66092 14.8836 7.13684 15.5493 7.7804 16.0219C8.42396 16.4944 9.20156 16.7493 10 16.7493C10.7984 16.7493 11.576 16.4944 12.2196 16.0219C12.8632 15.5493 13.3391 14.8836 13.5781 14.1218C13.8171 13.3599 13.8067 12.5417 13.5484 11.7862C13.2901 11.0307 12.7974 10.3773 12.142 9.92125L11.5 9.4735V4.75C11.5 4.35218 11.342 3.97064 11.0607 3.68934C10.7794 3.40804 10.3978 3.25 10 3.25C9.60218 3.25 9.22064 3.40804 8.93934 3.68934C8.65804 3.97064 8.5 4.35218 8.5 4.75V9.4735L7.858 9.92125ZM7 13H13C13 13.7956 12.6839 14.5587 12.1213 15.1213C11.5587 15.6839 10.7956 16 10 16C9.20435 16 8.44129 15.6839 7.87868 15.1213C7.31607 14.5587 7 13.7956 7 13Z" fill="#0E121B"/>
</svg>
