<svg width="20" height="20" viewBox="0 0 20 20" fill="none" xmlns="http://www.w3.org/2000/svg">
<path d="M10 11.5V17.5H4C4 15.9087 4.63214 14.3826 5.75736 13.2574C6.88258 12.1321 8.4087 11.5 10 11.5ZM10 10.75C7.51375 10.75 5.5 8.73625 5.5 6.25C5.5 3.76375 7.51375 1.75 10 1.75C12.4862 1.75 14.5 3.76375 14.5 6.25C14.5 8.73625 12.4862 10.75 10 10.75ZM11.9462 15.109C11.8512 14.7088 11.8512 14.2919 11.9462 13.8917L11.2022 13.462L11.9522 12.163L12.6962 12.5927C12.9949 12.3099 13.3558 12.1013 13.75 11.9838V11.125H15.25V11.9838C15.649 12.1023 16.009 12.3138 16.3037 12.5927L17.0477 12.163L17.7977 13.462L17.0537 13.8917C17.1487 14.2917 17.1487 14.7083 17.0537 15.1083L17.7977 15.538L17.0477 16.837L16.3037 16.4072C16.0051 16.6901 15.6442 16.8987 15.25 17.0162V17.875H13.75V17.0162C13.3558 16.8987 12.9949 16.6901 12.6962 16.4072L11.9522 16.837L11.2022 15.538L11.9462 15.109ZM14.5 13.75C14.3011 13.75 14.1103 13.829 13.9697 13.9697C13.829 14.1103 13.75 14.3011 13.75 14.5C13.75 14.6989 13.829 14.8897 13.9697 15.0303C14.1103 15.171 14.3011 15.25 14.5 15.25C14.6989 15.25 14.8897 15.171 15.0303 15.0303C15.171 14.8897 15.25 14.6989 15.25 14.5C15.25 14.3011 15.171 14.1103 15.0303 13.9697C14.8897 13.829 14.6989 13.75 14.5 13.75Z" fill="#525866"/>
</svg>
