<svg width="20" height="20" viewBox="0 0 20 20" fill="none" xmlns="http://www.w3.org/2000/svg">
<path d="M8.875 13.7503H4V12.2503H8.875C9.35406 12.2505 9.82394 12.3818 10.2337 12.6299C10.6435 12.878 10.9776 13.2336 11.1997 13.658C11.4219 14.0825 11.5237 14.5596 11.494 15.0377C11.4644 15.5159 11.3045 15.9768 11.0316 16.3705C10.7587 16.7643 10.3833 17.0759 9.94599 17.2715C9.5087 17.4671 9.0262 17.5393 8.55079 17.4803C8.07537 17.4213 7.62517 17.2334 7.24895 16.9368C6.87274 16.6402 6.58486 16.2463 6.4165 15.7978L7.82125 15.2706C7.89338 15.4628 8.01675 15.6316 8.17797 15.7587C8.3392 15.8859 8.53213 15.9664 8.73588 15.9917C8.93963 16.0171 9.14642 15.9861 9.33384 15.9023C9.52126 15.8185 9.68217 15.6849 9.79914 15.5162C9.9161 15.3475 9.98465 15.1499 9.99737 14.945C10.0101 14.7401 9.96649 14.5356 9.87129 14.3537C9.77609 14.1718 9.63293 14.0194 9.45731 13.913C9.28169 13.8067 9.08031 13.7504 8.875 13.7503ZM4.75 9.25032H14.875C15.3541 9.25049 15.8239 9.38176 16.2337 9.6299C16.6435 9.87804 16.9776 10.2336 17.1997 10.658C17.4219 11.0825 17.5237 11.5596 17.494 12.0377C17.4644 12.5159 17.3045 12.9768 17.0316 13.3705C16.7587 13.7643 16.3833 14.0759 15.946 14.2715C15.5087 14.4671 15.0262 14.5393 14.5508 14.4803C14.0754 14.4213 13.6252 14.2334 13.249 13.9368C12.8727 13.6402 12.5849 13.2463 12.4165 12.7978L13.8212 12.2706C13.8934 12.4628 14.0167 12.6316 14.178 12.7587C14.3392 12.8859 14.5321 12.9664 14.7359 12.9917C14.9396 13.0171 15.1464 12.9861 15.3338 12.9023C15.5213 12.8185 15.6822 12.6849 15.7991 12.5162C15.9161 12.3475 15.9847 12.1499 15.9974 11.945C16.0101 11.7401 15.9665 11.5356 15.8713 11.3537C15.7761 11.1718 15.6329 11.0194 15.4573 10.913C15.2817 10.8067 15.0803 10.7504 14.875 10.7503H4.75C4.15326 10.7503 3.58097 10.5133 3.15901 10.0913C2.73705 9.66936 2.5 9.09706 2.5 8.50032C2.5 7.90359 2.73705 7.33129 3.15901 6.90933C3.58097 6.48738 4.15326 6.25032 4.75 6.25032H11.125C11.3303 6.25024 11.5317 6.19397 11.7073 6.08761C11.8829 5.98125 12.0261 5.82887 12.1213 5.64696C12.2165 5.46505 12.2601 5.26055 12.2474 5.05563C12.2347 4.85071 12.1661 4.65318 12.0491 4.48444C11.9322 4.3157 11.7713 4.18218 11.5838 4.09836C11.3964 4.01453 11.1896 3.9836 10.9859 4.0089C10.7821 4.0342 10.5892 4.11478 10.428 4.24191C10.2667 4.36903 10.1434 4.53785 10.0712 4.73007L8.6665 4.20357C8.88285 3.62818 9.29423 3.14693 9.82896 2.84368C10.3637 2.54043 10.9879 2.43441 11.5927 2.54409C12.1976 2.65376 12.7448 2.97218 13.139 3.44387C13.5332 3.91555 13.7494 4.5106 13.75 5.12532C13.75 5.82152 13.4734 6.4892 12.9812 6.98148C12.4889 7.47376 11.8212 7.75032 11.125 7.75032H4.75C4.55109 7.75032 4.36032 7.82934 4.21967 7.96999C4.07902 8.11065 4 8.30141 4 8.50032C4 8.69924 4.07902 8.89 4.21967 9.03065C4.36032 9.17131 4.55109 9.25032 4.75 9.25032Z" fill="#0E121B"/>
</svg>
