<svg width="46" height="13" viewBox="0 0 46 13" fill="none" xmlns="http://www.w3.org/2000/svg">
<path d="M6.496 13H0.032L2 0.615999H8.208C9.584 0.615999 10.6187 0.850666 11.312 1.32C12.016 1.78933 12.368 2.49333 12.368 3.432C12.368 4.168 12.1067 4.808 11.584 5.352C11.072 5.88533 10.3413 6.26933 9.392 6.504V6.536C10.2667 6.70667 10.9227 7.016 11.36 7.464C11.7973 7.90133 12.016 8.48267 12.016 9.208C12.016 10.4133 11.5413 11.3467 10.592 12.008C9.64267 12.6693 8.27733 13 6.496 13ZM7.984 4.488C7.984 4.232 7.89333 4.04 7.712 3.912C7.53067 3.784 7.25867 3.72 6.896 3.72H5.824L5.552 5.496H6.656C7.08267 5.496 7.408 5.41067 7.632 5.24C7.86667 5.06933 7.984 4.81867 7.984 4.488ZM7.648 8.856C7.648 8.6 7.55733 8.41333 7.376 8.296C7.20533 8.168 6.928 8.104 6.544 8.104H5.136L4.848 9.896H6.224C6.69333 9.896 7.04533 9.81067 7.28 9.64C7.52533 9.45867 7.648 9.19733 7.648 8.856ZM11.1464 13L13.1144 0.615999H22.6824L22.1384 3.976H16.9064L16.7144 5.144H21.5464L21.0504 8.296H16.2184L15.9944 9.64H21.5624L21.0344 13H11.1464ZM24.8169 13H20.3369L26.2409 0.615999H31.2329L33.2649 13H28.9609L28.8009 11.32H25.4889L24.8169 13ZM28.1449 4.744L26.6089 8.568H28.5289L28.1449 4.744ZM45.178 0.615999L44.65 3.96H41.402L39.978 13H35.658L37.082 3.96H33.834L34.362 0.615999H45.178Z" fill="#170B04"/>
</svg>
